<?xml version="1.0" ?>
<!DOCTYPE svg  PUBLIC '-//W3C//DTD SVG 1.1//EN'  'http://www.w3.org/Graphics/SVG/1.1/DTD/svg11.dtd'>
<!-- Uploaded to: SVG Repo, www.svgrepo.com, Generator: SVG Repo Mixer Tools -->
<svg width="800px" height="800px" viewBox="0 0 32 32" enable-background="new 0 0 32 32" version="1.1" xml:space="preserve" xmlns="http://www.w3.org/2000/svg" xmlns:xlink="http://www.w3.org/1999/xlink">
<g id="Home"/>
<g id="Print"/>
<g id="Mail"/>
<g id="Camera"/>
<g id="Video"/>
<g id="Film"/>
<g id="Message"/>
<g id="Telephone"/>
<g id="User"/>
<g id="File"/>
<g id="Folder"/>
<g id="Map"/>
<g id="Download"/>
<g id="Upload"/>
<g id="Video_Recorder"/>
<g id="Schedule"/>
<g id="Cart"/>
<g id="Setting"/>
<g id="Search"/>
<g id="Pencils"/>
<g id="Group"/>
<g id="Record"/>
<g id="Headphone"/>
<g id="Music_Player"/>
<g id="Sound_On"/>
<g id="Sound_Off"/>
<g id="Lock"/>
<g id="Lock_open"/>
<g id="Love"/>
<g id="Favorite"/>
<g id="Film_1_"/>
<g id="Music"/>
<g id="Puzzle"/>
<g id="Turn_Off"/>
<g id="Book">
<path d="M28,1H6C4.3,1,3,2.3,3,4v24c0,1.6,1.3,3,3,3h22c0.5,0,1-0.5,1-1V2C29,1.5,28.5,1,28,1z M15,12H8   c-0.5,0-1-0.5-1-1s0.5-1,1-1h7c0.5,0,1,0.5,1,1S15.5,12,15,12z M17,8H8C7.5,8,7,7.5,7,7s0.5-1,1-1h9c0.5,0,1,0.5,1,1S17.5,8,17,8z" fill="#FFC10A"/>
<path d="M16,11c0,0.5-0.5,1-1,1H8c-0.5,0-1-0.5-1-1s0.5-1,1-1h7C15.5,10,16,10.5,16,11z" fill="#0E9688"/>
<path d="M18,7c0,0.5-0.5,1-1,1H8C7.5,8,7,7.5,7,7s0.5-1,1-1h9C17.5,6,18,6.5,18,7z" fill="#0E9688"/>
<path d="M28,1h-4c-0.5,0-1,0.5-1,1v23h-7H6c-0.1,0-0.2,0-0.3,0c-0.1,0-0.2,0-0.3,0c-0.1,0-0.2,0-0.3,0.1   C3.9,25.5,3,26.7,3,28c0,1.6,1.3,3,3,3h10h12c0.5,0,1-0.5,1-1V2C29,1.5,28.5,1,28,1z" fill="#0E9688"/>
</g>
<g id="Save"/>
<g id="Reload"/>
<g id="Trash"/>
<g id="Tag"/>
<g id="Link"/>
<g id="Like"/>
<g id="Bad"/>
<g id="Gallery"/>
<g id="Add"/>
<g id="Close"/>
<g id="Forward"/>
<g id="Back"/>
<g id="Buy"/>
<g id="Mac"/>
<g id="Laptop"/>
</svg>