<svg xmlns="http://www.w3.org/2000/svg" viewBox="0 0 600 600">
<rect width="100%" height="100%" fill="black"/>
<g fill="none" stroke="#d9d9df" stroke-width="18" stroke-linecap="round">
  <path d="M120 200 C120 80,240 80,240 200 C240 300,360 300,360 200 C360 80,480 80,480 200"/>
  <path d="M150 200 C150 120,240 120,240 200 C240 280,360 280,360 200 C360 120,450 120,450 200"/>
  <path d="M200 200 C200 160,240 160,240 200 C240 260,360 260,360 200 C360 160,400 160,400 200"/>
  <path d="M260 220 L260 520"/>
  <path d="M340 240 L340 520"/>
</g>
</svg>